# xmcd
#
# Track frame offsets: 
#        150
#        3550
#        25914
#        62796
#        80532
#        95265
#        122987
#        145404
#        163347
#        185349
#
# Disc length: 2844 seconds
#
# Revision: 0
# Processed by: cddbd v1.5.2PL0 Copyright (c) Steve Scherf et al.
# Submitted via: ExactAudioCopy v0.99pb4
#
DISCID=870b1a0a
DTITLE=Cream Reunion 2005 - Royal Albert Hall 3rd May 2005 (alternate 
DTITLE=recording) cd1
DYEAR=2005
DGENRE=Blues
TTITLE0=Intro
TTITLE1=I'm So Glad
TTITLE2=Spoonful
TTITLE3=Outside Woman Blues
TTITLE4=Pressed Rat and Warthog
TTITLE5=Sleepy Time Time
TTITLE6=N.S.U.
TTITLE7=Badge
TTITLE8=Politician
TTITLE9=Sweet Wine
EXTD=
EXTT0=
EXTT1=
EXTT2=
EXTT3=
EXTT4=
EXTT5=
EXTT6=
EXTT7=
EXTT8=
EXTT9=
PLAYORDER=
